<svg version="1.1" id="Layer_1" xmlns="http://www.w3.org/2000/svg" x="0" y="0" viewBox="0 0 1684.4 403.5" xml:space="preserve"><style>.st0{fill:#00a0ff}</style><path class="st0" d="M685.4 394.9H465c-81 0-114.1-68.5-116.5-114.5 0-.7-.1-1.3-.1-2v-74.9c0-39.9 16.8-64.4 30.9-77.8 32.3-30.6 77.1-30.8 86.4-30.8h109.1l73.2 75H465c-.7 0-1.3.1-2 .1-5.2 0-23.1 1.4-32.2 10.3-1.8 1.8-7.4 7.2-7.4 23.2v73.6c1 13.2 7.5 42.8 41.6 42.8h183.4V6.9h75v350.5c0 20.7-17.2 37.5-38 37.5m361.3 0h-183c-81 0-113.9-68.5-116.3-114.5v-76.9c0-39.9 16.7-64.4 30.8-77.8 32.2-30.6 76.9-30.8 86.2-30.8h219.8c20.7 0 37.2 17.2 37.2 37.9v262.1h-75v-225H863.7c-.7 0-1.3.1-2 .1-5.2 0-22.9 1.4-32.1 10.3-1.8 1.8-7.2 7.2-7.2 23.2v73.6c1 13.2 7.2 42.8 41.3 42.8h106.8l76.2 75zm554.7 0h-183c-81 0-113.8-68.5-116.2-114.5 0-.7.2-1.3.2-2v-74.9c0-39.9 16.6-64.4 30.6-77.8 32.2-30.6 76.7-30.8 86.1-30.8h219.8c20.7 0 37.5 17.2 37.5 37.9v262.1h-75v-225h-183c-.7 0-1.3.1-2 .1-5.3-.1-23.3 1.4-32.4 10.3-1.8 1.8-7.6 7.2-7.6 23.2v73.6c1 13.2 7.9 42.8 42 42.8h107.8l75.2 75z"/><path class="st0" d="M1263.4 319.9h-10c-16.9 0-22.3-7.7-24.1-9.5-7.9-8.1-9.2-25.6-9.1-29.9 0-.7.2-1.4.2-2.1V133.9h53v-74h-53v-53h-75v270.9c0 9.2 0 53 29.3 84 13.4 14.2 37.9 33.2 78.7 33.2h85l-75-75.1zm-882.6 75H123.9c-81 0-114-68.5-116.4-114.5 0-.7-.1-1.3-.1-2v-74.9c0-39.9 16.8-64.4 30.9-77.8 32.2-30.6 77-30.8 86.3-30.8h254.2l-75.2 75H123.9c-.7 0-1.3.1-2 .1-5.2 0-23 1.4-32.2 10.3-1.8 1.8-7.3 7.2-7.3 23.2v73.6c1 13.2 7.4 42.8 41.5 42.8h179.7l77.2 75z"/><path class="st0" d="M228.7 245.1l74.7 74.9V169.7z"/></svg>